With: Dustin Hoffman, Faye Dunaway and Martin Balsam

Een man van 121 vertelt zijn levensverhaal. Toen hij 10 was, klein maar sterk, werd hij geadopteerd door de indianen. Hij kreeg verschillende blanke opvoedingen en leefde constant in tweestrijd door de oorlog. We volgen zijn leven tot aan de Battle at little big horn, waar Generaal Custer de dood vond.

Jack Crabb, looking back from extreme old age, tells of his life being raised by Indians and fighting with General Custer. 

------------------ Dutch Friends ------------------
You can find my Friends at: http://www.Film-Test.nl 
------ They got my dutchs subs ---- and more ------

General:

Complete name                    : Little Big Man\Litle Big Man.avi
Format                           : AVI
Format/Info                      : Audio Video Interleave
File size                        : 2.06 GiB
Duration                         : 2h 13mn
Overall bit rate                 : 2 201 Kbps

Video:

Format                           : MPEG-4 Visual
Format profile                   : Simple@L3
Format settings, BVOP            : No
Format settings, QPel            : No
Format settings, GMC             : No warppoints
Format settings, Matrix          : Default (H.263)
Codec ID                         : XVID
Codec ID/Hint                    : XviD
Duration                         : 2h 13mn
Bit rate                         : 1 743 Kbps
Width                            : 720 pixels
Height                           : 328 pixels
Display aspect ratio             : 2.2:1
Frame rate                       : 25.000 fps
Color space                      : YUV
Chroma subsampling               : 4:2:0
Bit depth                        : 8 bits
Scan type                        : Progressive
Bits/(Pixel*Frame)               : 0.295
Stream size                      : 1.63 GiB (79%)
Writing library                  : XviD 1.1.2 (UTC 2006-11-01)

Audio:

Format                           : AC-3
Format/Info                      : Audio Coding 3
Mode extension                   : CM (complete main)
Codec ID                         : 2000
Duration                         : 2h 13mn
Bit rate mode                    : Constant
Bit rate                         : 448 Kbps
Channel(s)                       : 6 channels
Channel positions                : Front: L C R, Side: L R, LFE
Sampling rate                    : 48.0 KHz
Bit depth                        : 16 bits
Stream size                      : 428 MiB (20%)
Alignment                        : Aligned on interleaves
Interleave, duration             : 32 ms (0.80 video frame)


